<svg width="128" height="128" viewBox="0 0 128 128" xmlns="http://www.w3.org/2000/svg">
  <!-- Simple solid color background instead of gradient -->
  <circle cx="64" cy="64" r="60" fill="#667eea"/>
  
  <!-- Network Icon -->
  <g fill="white" stroke="white" stroke-width="2">
    <!-- Center Node -->
    <circle cx="64" cy="64" r="8" />
    
    <!-- Top Node -->
    <circle cx="64" cy="28" r="6" />
    <line x1="64" y1="34" x2="64" y2="56" stroke-width="3"/>
    
    <!-- Bottom Node -->
    <circle cx="64" cy="100" r="6" />
    <line x1="64" y1="94" x2="64" y2="72" stroke-width="3"/>
    
    <!-- Left Node -->
    <circle cx="28" cy="64" r="6" />
    <line x1="34" y1="64" x2="56" y2="64" stroke-width="3"/>
    
    <!-- Right Node -->
    <circle cx="100" cy="64" r="6" />
    <line x1="94" y1="64" x2="72" y2="64" stroke-width="3"/>
  </g>
  
  <!-- Lock Icon (Security) -->
  <g transform="translate(90, 20)">
    <rect x="0" y="8" width="16" height="18" rx="2" fill="#22c55e"/>
    <path d="M 3 8 L 3 5 C 3 2 5 0 8 0 C 11 0 13 2 13 5 L 13 8" stroke="#22c55e" stroke-width="2.5" fill="none"/>
    <circle cx="8" cy="16" r="2" fill="white"/>
  </g>
</svg>
